<svg id="youtube_profile" data-name="youtube profile" xmlns="http://www.w3.org/2000/svg" width="20" height="20" viewBox="0 0 20 20">
  <circle id="Ellipse_8" data-name="Ellipse 8" cx="10" cy="10" r="10" transform="translate(0 0)" fill="#fff"/>
  <g id="Group_23420" data-name="Group 23420" transform="translate(0 0.093)">
    <path id="Path_19" data-name="Path 19" d="M514.926,141.319c-.312-.983-.481-1.913-1.56-2.242-2.177-.8-4.35-1.607-6.524-2.412l-.01,0c-2.2-.6-2.976-2.24-2.475-4.454a5.684,5.684,0,0,1,4.865-4.272V126.4a10,10,0,0,0,0,19.815v-1.548a7.806,7.806,0,0,1-2.617-.977,5.238,5.238,0,0,1-2.781-3.708c-.124-.639-.127-1.471.728-1.4,1.157-.008,2.314,0,3.573,0a.136.136,0,0,1,.129.178l-.847,2.577a.135.135,0,0,0,.2.158l3.486-2.113a.136.136,0,0,1,.14,0l3.5,2.1A.135.135,0,0,0,514.926,141.319Z" transform="translate(-500.587 -126.396)" fill="#b88610"/>
    <path id="Path_20" data-name="Path 20" d="M723.351,126.4v1.564a5.807,5.807,0,0,1,4.852,4.306c.149.637-.128,1-.779,1.015-1.2.018-2.41.006-3.663.005a.136.136,0,0,1-.128-.091l-.936-2.755a.135.135,0,0,0-.256,0l-.93,2.738a.136.136,0,0,1-.128.092H718.2a.135.135,0,0,0-.048.261c2.714,1.017,5.49,1.917,8.25,2.806l.014.005c4.772,2.092,1.687,7.364-3.068,8.292v1.576a10,10,0,0,0,0-19.815Z" transform="translate(-711.985 -126.396)" fill="#b88610"/>
  </g>
</svg>
